<?xml version="1.0" encoding="utf-8" standalone="no"?>
<!DOCTYPE svg PUBLIC "-//W3C//DTD SVG 1.1//EN"
  "http://www.w3.org/Graphics/SVG/1.1/DTD/svg11.dtd">
<!-- Created with matplotlib (http://matplotlib.org/) -->
<svg height="432pt" version="1.1" viewBox="0 0 576 432" width="576pt" xmlns="http://www.w3.org/2000/svg" xmlns:xlink="http://www.w3.org/1999/xlink">
 <defs>
  <style type="text/css">
*{stroke-linecap:butt;stroke-linejoin:round;stroke-miterlimit:100000;}
  </style>
 </defs>
 <g id="figure_1">
  <g id="patch_1">
   <path d="M 0 432 
L 576 432 
L 576 0 
L 0 0 
z
" style="fill:#ffffff;"/>
  </g>
  <g id="axes_1">
   <g id="patch_2">
    <path d="M 72 388.8 
L 518.4 388.8 
L 518.4 43.2 
L 72 43.2 
z
" style="fill:#ffffff;"/>
   </g>
   <g id="line2d_1">
    <path clip-path="url(#p01b23a7f48)" d="M 72 388.796615 
L 239.405595 388.547941 
L 255.191256 388.286828 
L 263.904703 387.935017 
L 269.619172 387.484882 
L 273.573047 386.954998 
L 276.3333 386.372175 
L 278.526582 385.689965 
L 280.346857 384.896597 
L 281.838885 384.009149 
L 283.122029 382.985873 
L 284.285812 381.757166 
L 285.27055 380.391144 
L 286.180688 378.74951 
L 287.075905 376.651074 
L 287.86668 374.232443 
L 288.612694 371.192736 
L 289.343788 367.259927 
L 290.030121 362.312653 
L 290.686614 355.953211 
L 291.343106 347.244034 
L 292.014519 335.174514 
L 292.760533 317.441543 
L 293.655751 290.408243 
L 295.610308 229.271669 
L 296.401083 212.664502 
L 297.162017 201.19501 
L 297.982633 192.139701 
L 298.89277 184.457561 
L 299.92227 177.64927 
L 301.071132 171.517203 
L 302.369197 165.79769 
L 303.756783 160.674678 
L 305.293573 155.863968 
L 306.904963 151.546121 
L 308.650637 147.4938 
L 310.485832 143.780691 
L 312.47023 140.268165 
L 314.58891 136.970864 
L 316.826953 133.905687 
L 319.169437 131.069066 
L 321.661125 128.396638 
L 324.316936 125.866252 
L 327.13687 123.488276 
L 330.135847 121.247232 
L 333.298947 119.157728 
L 336.730613 117.15757 
L 340.415923 115.272747 
L 344.339958 113.518188 
L 348.577319 111.867341 
L 353.083245 110.348569 
L 358.036779 108.916598 
L 363.423002 107.59396 
L 369.316515 106.381631 
L 375.821759 105.276875 
L 382.983495 104.291161 
L 390.921087 103.427407 
L 399.888178 102.679829 
L 410.138414 102.053164 
L 422.059721 101.552244 
L 436.442876 101.177449 
L 454.98879 100.929808 
L 482.113867 100.813588 
L 518.4 100.8 
L 518.4 100.8 
" style="fill:none;stroke:#1b9e77;stroke-linecap:square;"/>
   </g>
   <g id="line2d_2">
    <path clip-path="url(#p01b23a7f48)" d="M 72 388.798634 
L 243.374391 388.670502 
L 262.084428 388.457793 
L 270.723273 388.151133 
L 275.587286 387.765437 
L 279.063712 387.25546 
L 281.346516 386.700362 
L 283.092189 386.040984 
L 284.375333 385.352649 
L 285.643558 384.415674 
L 286.628296 383.389403 
L 287.508593 382.146068 
L 288.329209 380.601006 
L 289.075223 378.670707 
L 289.731716 376.343668 
L 290.418049 373.01928 
L 291.01486 368.999779 
L 291.581831 363.550841 
L 292.163722 355.59775 
L 292.700852 345.084348 
L 293.267823 329.234197 
L 293.909395 304.711602 
L 295.789351 227.908818 
L 296.430923 212.989815 
L 297.117257 201.91508 
L 297.893111 193.044057 
L 298.803249 185.180257 
L 299.847669 178.138866 
L 301.056212 171.578389 
L 302.309516 166.027799 
L 303.682182 160.937519 
L 305.204051 156.11977 
L 306.815442 151.764692 
L 308.605876 147.583283 
L 310.441071 143.862867 
L 312.395628 140.38553 
L 314.469548 137.145341 
L 316.767272 133.979169 
L 319.169437 131.064432 
L 321.690966 128.359279 
L 324.391537 125.795622 
L 327.211471 123.42569 
L 330.255209 121.163936 
L 333.552592 119.000185 
L 336.969337 117.02753 
L 340.639727 115.16637 
L 344.653284 113.385285 
L 348.950326 111.731407 
L 353.530853 110.208939 
L 358.529149 108.784714 
L 363.945212 107.477004 
L 369.838725 106.284978 
L 376.40365 105.18934 
L 383.505705 104.229117 
L 391.517898 103.372332 
L 400.589431 102.630715 
L 410.854587 102.016955 
L 422.954938 101.522824 
L 437.666339 101.153978 
L 456.361456 100.918622 
L 484.471272 100.810445 
L 518.4 100.8 
L 518.4 100.8 
" style="fill:none;stroke:#d95f02;stroke-linecap:square;"/>
   </g>
   <g id="line2d_3">
    <path clip-path="url(#p01b23a7f48)" d="M 72 388.79892 
L 247.059701 388.67595 
L 264.367232 388.472565 
L 272.334664 388.181877 
L 276.84059 387.826954 
L 280.108132 387.34474 
L 282.182052 386.834656 
L 283.942645 386.172588 
L 285.300391 385.406536 
L 286.359731 384.558332 
L 287.269869 383.57245 
L 288.120325 382.312284 
L 288.92602 380.684423 
L 289.627274 378.646894 
L 290.313607 375.920492 
L 290.925338 372.520072 
L 291.477389 368.124657 
L 292.014519 361.986629 
L 292.536729 353.584106 
L 293.073859 340.960891 
L 293.655751 321.276863 
L 294.357004 289.022463 
L 295.505866 237.425876 
L 296.132518 219.015137 
L 296.75917 206.957798 
L 297.490264 197.237915 
L 298.34072 188.981931 
L 299.37022 181.253291 
L 300.474321 174.643395 
L 301.667943 168.830551 
L 303.010769 163.392929 
L 304.502798 158.297006 
L 306.084348 153.691693 
L 307.75542 149.518618 
L 309.560774 145.609886 
L 311.470571 141.990528 
L 313.469889 138.663486 
L 315.64825 135.48287 
L 318.050416 132.389576 
L 320.586865 129.513404 
L 323.197914 126.896056 
L 325.898486 124.497936 
L 328.837782 122.183852 
L 331.956122 120.013883 
L 335.223664 118.004716 
L 338.774692 116.080474 
L 342.594285 114.266906 
L 346.786885 112.533357 
L 351.24805 110.938553 
L 355.9927 109.477614 
L 361.184959 108.114782 
L 366.854668 106.860169 
L 373.076426 105.715253 
L 379.894996 104.689985 
L 387.608784 103.762278 
L 396.068585 102.972251 
L 405.662328 102.300637 
L 416.971904 101.740393 
L 430.459842 101.308573 
L 446.916916 101.01306 
L 469.327183 100.845722 
L 510.775734 100.800037 
L 518.4 100.8 
L 518.4 100.8 
" style="fill:none;stroke:#7570b3;stroke-linecap:square;"/>
   </g>
   <g id="line2d_4">
    <path clip-path="url(#p01b23a7f48)" d="M 72 388.798226 
L 238.764023 388.663713 
L 258.5334 388.452698 
L 268.186824 388.136831 
L 273.781931 387.72228 
L 277.288198 387.242917 
L 279.720205 386.702 
L 281.659842 386.056106 
L 283.241392 385.289667 
L 284.494696 384.443016 
L 285.524195 383.508023 
L 286.464173 382.345898 
L 287.404151 380.812559 
L 288.194926 379.103306 
L 288.9111 376.990317 
L 289.597433 374.295252 
L 290.253926 370.804563 
L 290.835817 366.44712 
L 291.447548 360.104559 
L 292.029439 351.705508 
L 292.611331 339.721091 
L 293.252903 321.538723 
L 294.028758 292.884248 
L 295.640148 231.569138 
L 296.326482 215.011295 
L 297.027735 203.214582 
L 297.788669 194.20788 
L 298.668966 186.296517 
L 299.668625 179.312552 
L 300.802567 172.909051 
L 302.02603 167.256957 
L 303.398696 161.969009 
L 304.905645 157.040279 
L 306.487195 152.621102 
L 308.203028 148.493522 
L 310.053143 144.625075 
L 311.96294 141.13238 
L 314.021939 137.82701 
L 316.245062 134.676331 
L 318.527865 131.817665 
L 321.019553 129.053404 
L 323.660443 126.461658 
L 326.450536 124.039605 
L 329.374912 121.787884 
L 332.523092 119.644023 
L 335.880156 117.62641 
L 339.520706 115.7032 
L 343.355219 113.931322 
L 347.57766 112.230975 
L 352.143267 110.643566 
L 357.066961 109.17557 
L 362.408423 107.824324 
L 368.167653 106.599169 
L 374.538614 105.475732 
L 381.506387 104.475935 
L 389.294776 103.586786 
L 398.067903 102.814418 
L 408.079414 102.162284 
L 419.717237 101.634798 
L 433.742304 101.232717 
L 451.422842 100.962499 
L 476.115913 100.825065 
L 518.4 100.800001 
L 518.4 100.800001 
" style="fill:none;stroke:#e7298a;stroke-linecap:square;"/>
   </g>
   <g id="line2d_5">
    <path clip-path="url(#p01b23a7f48)" d="M 72 388.794933 
L 145.124316 388.763687 
L 221.933942 388.59716 
L 243.642956 388.362667 
L 255.594104 388.040738 
L 263.113928 387.620031 
L 268.142064 387.127562 
L 271.767693 386.559287 
L 274.677148 385.873811 
L 277.258358 384.971241 
L 279.108473 384.11036 
L 280.928748 382.897761 
L 282.047769 381.948603 
L 283.107109 380.713945 
L 284.300732 378.957357 
L 285.25563 377.192777 
L 286.165768 375.019956 
L 286.941622 372.613766 
L 287.747318 369.31301 
L 288.627615 364.725248 
L 289.343788 359.849595 
L 290.030121 353.484638 
L 290.701534 345.122089 
L 291.432628 333.034211 
L 292.298005 314.609334 
L 293.297664 288.78133 
L 295.476025 229.370164 
L 296.281721 213.625573 
L 297.102336 202.022006 
L 298.027394 192.058056 
L 298.997212 183.952318 
L 299.996872 177.411734 
L 301.130813 171.436943 
L 302.488559 165.493446 
L 303.905986 160.292938 
L 305.368174 155.734342 
L 307.024326 151.327652 
L 308.769999 147.283773 
L 310.679795 143.445178 
L 312.544831 140.170613 
L 314.753033 136.746127 
L 316.916474 133.796021 
L 319.393242 130.813854 
L 321.89985 128.152162 
L 324.54074 125.658236 
L 327.226391 123.414682 
L 330.464093 121.01498 
L 333.761476 118.870854 
L 337.073779 116.967787 
L 340.80385 115.08933 
L 344.921849 113.276008 
L 349.457616 111.556137 
L 354.291788 109.980713 
L 359.11104 108.63629 
L 364.407741 107.378512 
L 370.405695 106.181584 
L 376.881099 105.118087 
L 384.25172 104.140402 
L 392.263913 103.304205 
L 401.648772 102.555927 
L 411.869167 101.965985 
L 424.1038 101.485943 
L 439.143447 101.127745 
L 458.629339 100.901752 
L 487.858177 100.806778 
L 518.4 100.8 
L 518.4 100.8 
" style="fill:none;stroke:#66a61e;stroke-linecap:square;"/>
   </g>
   <g id="line2d_6">
    <path clip-path="url(#p01b23a7f48)" d="M 72 388.783066 
L 92.515392 388.754443 
L 182.275825 388.544528 
L 213.593502 388.266527 
L 231.139757 387.901411 
L 242.27029 387.459149 
L 250.088519 386.938337 
L 255.862669 386.343109 
L 260.398436 385.661358 
L 264.038985 384.894275 
L 267.067803 384.028968 
L 269.589331 383.079246 
L 271.722932 382.041859 
L 273.602888 380.884298 
L 275.28888 379.588546 
L 276.810749 378.138469 
L 278.168495 376.539976 
L 279.436719 374.69954 
L 280.645262 372.548086 
L 281.779204 370.067212 
L 282.853464 367.168133 
L 283.882964 363.734007 
L 284.882623 359.613711 
L 285.852442 354.638621 
L 286.79242 348.619667 
L 287.747318 341.001617 
L 288.702216 331.537082 
L 289.716795 319.145919 
L 290.835817 302.609884 
L 292.223403 278.544697 
L 295.326822 223.505666 
L 296.490605 207.442509 
L 297.549945 195.738907 
L 298.579445 186.713174 
L 299.638785 179.32296 
L 300.772726 172.946327 
L 302.02603 167.159593 
L 303.383776 161.928152 
L 304.845964 157.158084 
L 306.442435 152.705311 
L 308.173188 148.535005 
L 310.008383 144.688128 
L 311.94802 141.138099 
L 314.007019 137.829026 
L 316.215221 134.704253 
L 318.542786 131.791846 
L 321.019553 129.050716 
L 323.645523 126.473954 
L 326.450536 124.038338 
L 329.389833 121.777617 
L 332.567853 119.617372 
L 335.954758 117.586838 
L 339.550546 115.692178 
L 343.429821 113.901796 
L 347.562739 112.239937 
L 352.023905 110.684913 
L 356.947599 109.210673 
L 362.214459 107.870342 
L 367.988609 106.634295 
L 374.31481 105.511894 
L 381.282583 104.504714 
L 389.145573 103.601861 
L 397.799338 102.834414 
L 407.795929 102.177595 
L 419.299469 101.649781 
L 433.055971 101.247353 
L 450.244139 100.974983 
L 476.071152 100.825568 
L 518.4 100.800477 
L 518.4 100.800477 
" style="fill:none;stroke:#e6ab02;stroke-linecap:square;"/>
   </g>
   <g id="patch_3">
    <path d="M 72 388.8 
L 518.4 388.8 
" style="fill:none;stroke:#000000;stroke-linecap:square;stroke-linejoin:miter;"/>
   </g>
   <g id="patch_4">
    <path d="M 72 388.8 
L 72 43.2 
" style="fill:none;stroke:#000000;stroke-linecap:square;stroke-linejoin:miter;"/>
   </g>
   <g id="matplotlib.axis_1">
    <g id="xtick_1">
     <g id="line2d_7">
      <defs>
       <path d="M 0 0 
L 0 -4 
" id="m3e67f3abc4" style="stroke:#000000;stroke-width:0.5;"/>
      </defs>
      <g>
       <use style="stroke:#000000;stroke-width:0.5;" x="72.0" xlink:href="#m3e67f3abc4" y="388.8"/>
      </g>
     </g>
     <g id="text_1">
      <text style="font-family:Bitstream Vera Sans;font-size:18.0px;font-style:normal;font-weight:400;text-anchor:middle;" transform="rotate(-0.000000, 72.000000, 406.477188)" x="72.0" y="406.4771875">0.0</text>
     </g>
    </g>
    <g id="xtick_2">
     <g id="line2d_8">
      <g>
       <use style="stroke:#000000;stroke-width:0.5;" x="161.28" xlink:href="#m3e67f3abc4" y="388.8"/>
      </g>
     </g>
     <g id="text_2">
      <text style="font-family:Bitstream Vera Sans;font-size:18.0px;font-style:normal;font-weight:400;text-anchor:middle;" transform="rotate(-0.000000, 161.280000, 406.477188)" x="161.28" y="406.4771875">0.2</text>
     </g>
    </g>
    <g id="xtick_3">
     <g id="line2d_9">
      <g>
       <use style="stroke:#000000;stroke-width:0.5;" x="250.56" xlink:href="#m3e67f3abc4" y="388.8"/>
      </g>
     </g>
     <g id="text_3">
      <text style="font-family:Bitstream Vera Sans;font-size:18.0px;font-style:normal;font-weight:400;text-anchor:middle;" transform="rotate(-0.000000, 250.560000, 406.477188)" x="250.56" y="406.4771875">0.4</text>
     </g>
    </g>
    <g id="xtick_4">
     <g id="line2d_10">
      <g>
       <use style="stroke:#000000;stroke-width:0.5;" x="339.84" xlink:href="#m3e67f3abc4" y="388.8"/>
      </g>
     </g>
     <g id="text_4">
      <text style="font-family:Bitstream Vera Sans;font-size:18.0px;font-style:normal;font-weight:400;text-anchor:middle;" transform="rotate(-0.000000, 339.840000, 406.477188)" x="339.84" y="406.4771875">0.6</text>
     </g>
    </g>
    <g id="xtick_5">
     <g id="line2d_11">
      <g>
       <use style="stroke:#000000;stroke-width:0.5;" x="429.12" xlink:href="#m3e67f3abc4" y="388.8"/>
      </g>
     </g>
     <g id="text_5">
      <text style="font-family:Bitstream Vera Sans;font-size:18.0px;font-style:normal;font-weight:400;text-anchor:middle;" transform="rotate(-0.000000, 429.120000, 406.477188)" x="429.12" y="406.4771875">0.8</text>
     </g>
    </g>
    <g id="xtick_6">
     <g id="line2d_12">
      <g>
       <use style="stroke:#000000;stroke-width:0.5;" x="518.4" xlink:href="#m3e67f3abc4" y="388.8"/>
      </g>
     </g>
     <g id="text_6">
      <text style="font-family:Bitstream Vera Sans;font-size:18.0px;font-style:normal;font-weight:400;text-anchor:middle;" transform="rotate(-0.000000, 518.400000, 406.477188)" x="518.4" y="406.4771875">1.0</text>
     </g>
    </g>
    <g id="text_7">
     <text style="font-family:Bitstream Vera Sans;font-size:18.0px;font-style:normal;font-weight:400;text-anchor:middle;" transform="rotate(-0.000000, 295.200000, 428.897812)" x="295.2" y="428.8978125">$p$</text>
    </g>
   </g>
   <g id="matplotlib.axis_2">
    <g id="ytick_1">
     <g id="line2d_13">
      <defs>
       <path d="M 0 0 
L 4 0 
" id="mc0be9b77c8" style="stroke:#000000;stroke-width:0.5;"/>
      </defs>
      <g>
       <use style="stroke:#000000;stroke-width:0.5;" x="72.0" xlink:href="#mc0be9b77c8" y="388.8"/>
      </g>
     </g>
     <g id="text_8">
      <text style="font-family:Bitstream Vera Sans;font-size:18.0px;font-style:normal;font-weight:400;text-anchor:end;" transform="rotate(-0.000000, 68.000000, 393.766875)" x="68.0" y="393.766875">0.0</text>
     </g>
    </g>
    <g id="ytick_2">
     <g id="line2d_14">
      <g>
       <use style="stroke:#000000;stroke-width:0.5;" x="72.0" xlink:href="#mc0be9b77c8" y="331.2"/>
      </g>
     </g>
     <g id="text_9">
      <text style="font-family:Bitstream Vera Sans;font-size:18.0px;font-style:normal;font-weight:400;text-anchor:end;" transform="rotate(-0.000000, 68.000000, 336.166875)" x="68.0" y="336.166875">0.2</text>
     </g>
    </g>
    <g id="ytick_3">
     <g id="line2d_15">
      <g>
       <use style="stroke:#000000;stroke-width:0.5;" x="72.0" xlink:href="#mc0be9b77c8" y="273.6"/>
      </g>
     </g>
     <g id="text_10">
      <text style="font-family:Bitstream Vera Sans;font-size:18.0px;font-style:normal;font-weight:400;text-anchor:end;" transform="rotate(-0.000000, 68.000000, 278.566875)" x="68.0" y="278.566875">0.4</text>
     </g>
    </g>
    <g id="ytick_4">
     <g id="line2d_16">
      <g>
       <use style="stroke:#000000;stroke-width:0.5;" x="72.0" xlink:href="#mc0be9b77c8" y="216.0"/>
      </g>
     </g>
     <g id="text_11">
      <text style="font-family:Bitstream Vera Sans;font-size:18.0px;font-style:normal;font-weight:400;text-anchor:end;" transform="rotate(-0.000000, 68.000000, 220.966875)" x="68.0" y="220.966875">0.6</text>
     </g>
    </g>
    <g id="ytick_5">
     <g id="line2d_17">
      <g>
       <use style="stroke:#000000;stroke-width:0.5;" x="72.0" xlink:href="#mc0be9b77c8" y="158.4"/>
      </g>
     </g>
     <g id="text_12">
      <text style="font-family:Bitstream Vera Sans;font-size:18.0px;font-style:normal;font-weight:400;text-anchor:end;" transform="rotate(-0.000000, 68.000000, 163.366875)" x="68.0" y="163.366875">0.8</text>
     </g>
    </g>
    <g id="ytick_6">
     <g id="line2d_18">
      <g>
       <use style="stroke:#000000;stroke-width:0.5;" x="72.0" xlink:href="#mc0be9b77c8" y="100.8"/>
      </g>
     </g>
     <g id="text_13">
      <text style="font-family:Bitstream Vera Sans;font-size:18.0px;font-style:normal;font-weight:400;text-anchor:end;" transform="rotate(-0.000000, 68.000000, 105.766875)" x="68.0" y="105.766875">1.0</text>
     </g>
    </g>
    <g id="ytick_7">
     <g id="line2d_19">
      <g>
       <use style="stroke:#000000;stroke-width:0.5;" x="72.0" xlink:href="#mc0be9b77c8" y="43.2"/>
      </g>
     </g>
     <g id="text_14">
      <text style="font-family:Bitstream Vera Sans;font-size:18.0px;font-style:normal;font-weight:400;text-anchor:end;" transform="rotate(-0.000000, 68.000000, 48.166875)" x="68.0" y="48.166875">1.2</text>
     </g>
    </g>
    <g id="text_15">
     <text style="font-family:Bitstream Vera Sans;font-size:18.0px;font-style:normal;font-weight:400;text-anchor:middle;" transform="rotate(-90.000000, 30.130313, 216.000000)" x="30.1303125" y="216.0">$P_\infty$</text>
    </g>
   </g>
   <g id="legend_1">
    <g id="line2d_20">
     <path d="M 362.502 247.384125 
L 392.742 247.384125 
" style="fill:none;stroke:#1b9e77;stroke-linecap:square;"/>
    </g>
    <g id="line2d_21"/>
    <g id="text_16">
     <text style="font-family:Bitstream Vera Sans;font-size:21.6px;font-style:normal;font-weight:400;text-anchor:start;" transform="rotate(-0.000000, 416.502000, 254.944125)" x="416.502" y="254.944125">250000</text>
    </g>
    <g id="line2d_22">
     <path d="M 362.502 269.368875 
L 392.742 269.368875 
" style="fill:none;stroke:#d95f02;stroke-linecap:square;"/>
    </g>
    <g id="line2d_23"/>
    <g id="text_17">
     <text style="font-family:Bitstream Vera Sans;font-size:21.6px;font-style:normal;font-weight:400;text-anchor:start;" transform="rotate(-0.000000, 416.502000, 276.928875)" x="416.502" y="276.928875">640000</text>
    </g>
    <g id="line2d_24">
     <path d="M 362.502 291.353625 
L 392.742 291.353625 
" style="fill:none;stroke:#7570b3;stroke-linecap:square;"/>
    </g>
    <g id="line2d_25"/>
    <g id="text_18">
     <text style="font-family:Bitstream Vera Sans;font-size:21.6px;font-style:normal;font-weight:400;text-anchor:start;" transform="rotate(-0.000000, 416.502000, 298.913625)" x="416.502" y="298.913625">810000</text>
    </g>
    <g id="line2d_26">
     <path d="M 362.502 313.338375 
L 392.742 313.338375 
" style="fill:none;stroke:#e7298a;stroke-linecap:square;"/>
    </g>
    <g id="line2d_27"/>
    <g id="text_19">
     <text style="font-family:Bitstream Vera Sans;font-size:21.6px;font-style:normal;font-weight:400;text-anchor:start;" transform="rotate(-0.000000, 416.502000, 320.898375)" x="416.502" y="320.898375">490000</text>
    </g>
    <g id="line2d_28">
     <path d="M 362.502 335.323125 
L 392.742 335.323125 
" style="fill:none;stroke:#66a61e;stroke-linecap:square;"/>
    </g>
    <g id="line2d_29"/>
    <g id="text_20">
     <text style="font-family:Bitstream Vera Sans;font-size:21.6px;font-style:normal;font-weight:400;text-anchor:start;" transform="rotate(-0.000000, 416.502000, 342.883125)" x="416.502" y="342.883125">160000</text>
    </g>
    <g id="line2d_30">
     <path d="M 362.502 357.307875 
L 392.742 357.307875 
" style="fill:none;stroke:#e6ab02;stroke-linecap:square;"/>
    </g>
    <g id="line2d_31"/>
    <g id="text_21">
     <text style="font-family:Bitstream Vera Sans;font-size:21.6px;font-style:normal;font-weight:400;text-anchor:start;" transform="rotate(-0.000000, 416.502000, 364.867875)" x="416.502" y="364.867875">40000</text>
    </g>
   </g>
  </g>
 </g>
 <defs>
  <clipPath id="p01b23a7f48">
   <rect height="345.6" width="446.4" x="72.0" y="43.2"/>
  </clipPath>
 </defs>
</svg>
